<svg width="238" height="72" viewBox="0 0 238 72" fill="none" xmlns="http://www.w3.org/2000/svg" role="img" aria-label="Fixr">
  <rect x="2" y="2" width="68" height="68" rx="19" fill="#ffffff"/>
  <circle cx="36" cy="36" r="28" fill="#ff4d00"/>
  <circle cx="36" cy="36" r="20" stroke="#ffffff" stroke-width="3.6"/>
  <path d="M36 18c-7.3 0-13.2 5.9-13.2 13.1 0 9.2 13.2 22.7 13.2 22.7s13.2-13.5 13.2-22.7C49.2 23.9 43.3 18 36 18Z" fill="#ffffff"/>
  <circle cx="36" cy="30.8" r="5.4" fill="#ff4d00"/>
  <path d="M20.3 24.2 36 30.8l15.7-6.6M21.1 48.4 36 30.8l14.9 17.6" stroke="#ffffff" stroke-width="3.6" stroke-linecap="round" stroke-linejoin="round"/>
  <circle cx="20.3" cy="24.2" r="4.9" fill="#ffffff"/>
  <circle cx="51.7" cy="24.2" r="4.9" fill="#ffffff"/>
  <circle cx="21.1" cy="48.4" r="4.9" fill="#ffffff"/>
  <circle cx="50.9" cy="48.4" r="4.9" fill="#ffffff"/>
  <text x="88" y="50" fill="#011926" font-family="Outfit, Arial, sans-serif" font-size="42" font-weight="900" letter-spacing="-1">Fixr</text>
</svg>
