<svg width="100" height="100" viewBox="0 0 100 100" fill="none" xmlns="http://www.w3.org/2000/svg" role="img" aria-label="Fixr">
  <rect x="3" y="3" width="94" height="94" rx="26" fill="#ffffff"/>
  <circle cx="50" cy="50" r="39" fill="#ff4d00"/>
  <circle cx="50" cy="50" r="28" stroke="#ffffff" stroke-width="5"/>
  <path d="M50 25c-10.2 0-18.5 8.2-18.5 18.3C31.5 56.2 50 74.7 50 74.7s18.5-18.5 18.5-31.4C68.5 33.2 60.2 25 50 25Z" fill="#ffffff"/>
  <circle cx="50" cy="42" r="7.5" fill="#ff4d00"/>
  <path d="M28 33.5 50 42 72 33.5M29.5 67 50 42 70.5 67" stroke="#ffffff" stroke-width="5" stroke-linecap="round" stroke-linejoin="round"/>
  <circle cx="28" cy="33.5" r="6.8" fill="#ffffff"/>
  <circle cx="72" cy="33.5" r="6.8" fill="#ffffff"/>
  <circle cx="29.5" cy="67" r="6.8" fill="#ffffff"/>
  <circle cx="70.5" cy="67" r="6.8" fill="#ffffff"/>
</svg>
