<svg width="238" height="72" viewBox="0 0 238 72" fill="none" xmlns="http://www.w3.org/2000/svg" role="img" aria-label="Fixr">
  <circle cx="36" cy="36" r="30" fill="#ff4d00"/>
  <circle cx="36" cy="36" r="22" stroke="#fff8f5" stroke-width="4"/>
  <path d="M36 17.5c-7.5 0-13.6 6-13.6 13.4 0 9.5 13.6 23 13.6 23s13.6-13.5 13.6-23c0-7.4-6.1-13.4-13.6-13.4Z" fill="#fff8f5"/>
  <circle cx="36" cy="30.8" r="5.4" fill="#ff4d00"/>
  <path d="M21.8 25.2 36 30.8l14.2-5.6M22.2 47.2 36 30.8l13.8 16.4" stroke="#fff8f5" stroke-width="3.6" stroke-linecap="round" stroke-linejoin="round"/>
  <circle cx="21.8" cy="25.2" r="4.7" fill="#fff8f5"/>
  <circle cx="50.2" cy="25.2" r="4.7" fill="#fff8f5"/>
  <circle cx="22.2" cy="47.2" r="4.7" fill="#fff8f5"/>
  <circle cx="49.8" cy="47.2" r="4.7" fill="#fff8f5"/>
  <text x="88" y="50" fill="#011926" font-family="Outfit, Arial, sans-serif" font-size="42" font-weight="900" letter-spacing="-1">Fixr</text>
</svg>
